<?xml version="1.0" encoding="UTF-8" standalone="no"?>
<!-- Created with Inkscape (http://www.inkscape.org/) -->

<svg
   xmlns:dc="http://purl.org/dc/elements/1.1/"
   xmlns:cc="http://creativecommons.org/ns#"
   xmlns:rdf="http://www.w3.org/1999/02/22-rdf-syntax-ns#"
   xmlns:svg="http://www.w3.org/2000/svg"
   xmlns="http://www.w3.org/2000/svg"
   xmlns:sodipodi="http://sodipodi.sourceforge.net/DTD/sodipodi-0.dtd"
   xmlns:inkscape="http://www.inkscape.org/namespaces/inkscape"
   width="112.136"
   height="46"
   viewBox="0 0 29.669317 12.170834"
   version="1.1"
   id="svg4838"
   inkscape:version="0.92.1 r15371"
   sodipodi:docname="logo-2glass-u.svg">
  <defs
     id="defs4832" />
  <sodipodi:namedview
     id="base"
     pagecolor="#ffffff"
     bordercolor="#666666"
     borderopacity="1.0"
     inkscape:pageopacity="0.0"
     inkscape:pageshadow="2"
     inkscape:zoom="22.4"
     inkscape:cx="19.693916"
     inkscape:cy="16.396442"
     inkscape:document-units="mm"
     inkscape:current-layer="layer1"
     showgrid="false"
     units="px"
     inkscape:window-width="1920"
     inkscape:window-height="1137"
     inkscape:window-x="-8"
     inkscape:window-y="-8"
     inkscape:window-maximized="1" />
  <metadata
     id="metadata4835">
    <rdf:RDF>
      <cc:Work
         rdf:about="">
        <dc:format>image/svg+xml</dc:format>
        <dc:type
           rdf:resource="http://purl.org/dc/dcmitype/StillImage" />
        <dc:title />
      </cc:Work>
    </rdf:RDF>
  </metadata>
  <g
     inkscape:label="Layer 1"
     inkscape:groupmode="layer"
     id="layer1"
     transform="translate(0,-284.82915)">
    <g
       transform="matrix(0.12674284,0,0,0.12674284,70.930824,274.95161)"
       id="g4818">
      <g
         id="text4545-2-0"
         style="font-style:normal;font-variant:normal;font-weight:normal;font-stretch:normal;font-size:31.97636223px;line-height:1.25;font-family:Catamaran;-inkscape-font-specification:Catamaran;letter-spacing:0px;word-spacing:0px;fill:#000000;fill-opacity:1;stroke:none;stroke-width:0.79940903"
         aria-label="MUSIC XPERIMENT">
        <path
           inkscape:connector-curvature="0"
           id="path4776"
           transform="scale(0.26458333)"
           d="m -1923.0312,294.56055 c -0.2915,-0.0156 -0.5345,-0.008 -0.7442,0.0195 -1.7196,0.22522 -1.6981,1.49442 0.293,16.69726 l 2.1543,16.45313 -3.2344,-1.16992 c -10.1452,-3.66902 -20.5949,4.79502 -19.1875,15.54101 0.6428,4.90776 4.0302,9.55655 8.3652,11.47852 7.5835,3.36223 16.8558,-0.83527 19.668,-8.9043 1.0831,-3.10824 0.965,-6.58169 -0.6465,-18.89648 l -1.9746,-15.08789 6.0215,1.77148 6.0195,1.77149 2.0625,-6.80274 2.0625,-6.80469 -3.9492,-1.28515 c -10.5455,-3.43236 -14.8703,-4.67214 -16.9101,-4.78125 z m 17.6289,59.77539 c -0.9615,-0.0328 -1.0652,0.66499 -1.3555,9.16601 l -0.3145,9.19922 -1.664,-0.93359 c -5.2193,-2.92887 -11.705,0.75479 -11.9102,6.76367 -0.094,2.74431 1.3372,5.59569 3.5352,7.04102 3.8451,2.52846 9.3007,1.07291 11.5722,-3.08789 0.8749,-1.60279 1.1255,-3.5144 1.3614,-10.4004 l 0.289,-8.43554 3.1348,1.51562 3.1348,1.51563 1.7461,-3.53711 1.746,-3.53516 -2.0449,-1.0625 c -6.2398,-3.24075 -8.2924,-4.17875 -9.2304,-4.20898 z m -41.3497,13.5332 -2.2343,0.55859 c -6.8217,1.70408 -8.979,2.36179 -9.7032,2.95899 -0.742,0.61209 -0.3577,1.20376 5.0547,7.76562 l 5.8575,7.10157 -1.8653,0.40234 c -5.8503,1.26198 -8.271,8.31696 -4.4453,12.95508 1.7472,2.11831 4.7084,3.30625 7.3125,2.93359 4.5556,-0.652 7.6786,-5.35661 6.625,-9.97851 -0.4059,-1.78027 -1.4836,-3.37768 -5.8672,-8.69336 l -5.3711,-6.51172 3.3516,-0.93945 3.3535,-0.93946 -1.0332,-3.80664 z m 302.5879,54.4375 c -5.8816,0 -10.9563,0.96671 -15.2265,2.90039 -4.1897,1.85313 -7.414,4.47151 -9.6699,7.85547 -2.256,3.30338 -3.3829,7.05058 -3.3829,11.24023 0,3.94795 1.1269,7.53306 3.3829,10.75586 2.3365,3.14225 5.0765,5.8822 8.2187,8.21875 3.2228,2.33653 7.5334,5.11507 12.9316,8.33789 l 3.625,2.17579 c 4.1091,2.25597 7.1308,4.2299 9.0645,5.92187 2.0143,1.61141 3.0215,3.42324 3.0215,5.4375 0,2.90054 -1.2484,5.1176 -3.7461,6.64844 -2.4977,1.53083 -6.1638,2.29492 -10.9981,2.29492 -3.1422,0 -6.6057,-0.56342 -10.3925,-1.69141 -3.7868,-1.20856 -7.1713,-2.57854 -10.1524,-4.10937 l -3.5058,12.68945 c 2.7394,1.692 6.6081,3.3051 11.6035,4.83594 5.0759,1.45025 9.3055,2.17383 12.6894,2.17383 6.4457,0 11.9642,-0.96671 16.5567,-2.90039 4.6731,-1.93369 8.1791,-4.5926 10.5156,-7.97657 2.4171,-3.38396 3.625,-7.29128 3.625,-11.72265 0,-3.94795 -0.9667,-7.37095 -2.9004,-10.27149 -1.8531,-2.98109 -4.1898,-5.47988 -7.0098,-7.49414 -2.8199,-2.09484 -6.6077,-4.51255 -11.3613,-7.25195 l -3.5039,-2.05273 -3.8672,-2.17579 c -4.1091,-2.4171 -7.0902,-4.39104 -8.9433,-5.92187 -1.7726,-1.61141 -2.6582,-3.58535 -2.6582,-5.92188 0,-2.7394 1.1268,-4.79436 3.3828,-6.16406 2.3365,-1.45025 5.3176,-2.17578 8.9433,-2.17578 3.1422,0 6.0424,0.4438 8.7012,1.33008 2.7394,0.88627 5.7611,2.13468 9.0645,3.74609 l 5.1972,-12.56836 c -8.5404,-4.10907 -16.276,-6.16406 -23.2051,-6.16406 z m -461.5742,0.11719 c -5.2346,0 -9.4492,4.21457 -9.4492,9.44922 0,5.23464 4.2146,9.44922 9.4492,9.44922 h 3.5235 v 87.85546 0 87.55274 c 0,22.41955 18.3441,40.76172 40.7637,40.76172 22.4195,0 40.7636,-18.34217 40.7636,-40.76172 v -84.08203 -3.47071 -87.85546 h 3.5215 c 5.2347,0 9.4492,-4.21458 9.4492,-9.44922 0,-5.23465 -4.2145,-9.44922 -9.4492,-9.44922 h -12.9707 -62.6289 z m 125.4688,0 c -5.2347,0 -9.4493,4.21457 -9.4493,9.44922 0,5.23464 4.2146,9.44922 9.4493,9.44922 h 3.5234 v 87.85546 0 87.55274 c 0,22.41955 18.344,40.76172 40.7636,40.76172 22.4196,0 40.7637,-18.34217 40.7637,-40.76172 v -84.08203 -3.47071 -87.85546 h 3.5215 c 5.2346,0 9.4492,-4.21458 9.4492,-9.44922 0,-5.23465 -4.2146,-9.44922 -9.4492,-9.44922 h -12.9707 -62.6289 z m 437.7148,0.125 c -7.8959,0 -14.8654,1.85234 -20.9082,5.55859 -5.9622,3.62565 -10.595,8.70231 -13.8984,15.22852 -3.2228,6.52618 -4.834,13.97811 -4.834,22.35742 0,8.05705 1.4896,15.30827 4.4707,21.75391 2.9811,6.36505 7.4133,11.40119 13.2949,15.10742 5.8816,3.70625 12.9708,5.55859 21.2695,5.55859 3.5451,0 7.493,-0.48236 11.8438,-1.44922 4.4314,-0.96685 8.1786,-2.25581 11.2402,-3.86718 l -5.9218,-11.60352 c -6.0428,2.49766 -12.0457,3.74805 -18.0079,3.74805 -4.5119,0 -8.4192,-1.2909 -11.7226,-3.86914 -3.3034,-2.65883 -5.8407,-6.2034 -7.6133,-10.63477 -1.692,-4.51195 -2.5391,-9.46704 -2.5391,-14.86523 0,-6.04279 0.9667,-11.32009 2.9004,-15.83204 2.0143,-4.51192 4.7543,-7.97547 8.2188,-10.39257 3.4645,-2.41711 7.3718,-3.62696 11.7226,-3.62696 2.7394,0 5.0356,0.20262 6.8887,0.60547 1.8531,0.32227 4.3519,0.96674 7.4942,1.9336 l 3.0195,0.8457 4.8359,-11.24024 c -3.2228,-1.77254 -6.9295,-3.102 -11.1191,-3.98828 -4.1897,-0.88627 -7.7343,-1.32812 -10.6348,-1.32812 z m -293.1699,1.6914 v 82.18165 h 15.5918 v -50.1543 l 19.6992,25.25781 6.043,-0.8457 15.3476,-21.63281 v 47.375 h 15.8321 v -82.18165 h -9.5469 l -25.2598,37.94922 -27.7969,-37.94922 z m 86.9941,0 0.1211,52.33008 c 0,5.88163 1.37,11.19946 4.1094,15.95313 2.7394,4.75364 6.6467,8.50083 11.7227,11.24023 5.0759,2.65882 10.9572,3.98828 17.6445,3.98828 6.7679,0 12.7302,-1.32946 17.8867,-3.98828 5.1565,-2.7394 9.1449,-6.44606 11.9649,-11.11914 2.8198,-4.75364 4.2304,-10.11201 4.2304,-16.07422 v -52.33008 h -15.832 v 51.1211 c 0,6.36508 -1.6517,11.24106 -4.9551,14.625 -3.2228,3.30338 -7.5739,4.95508 -13.0527,4.95508 -5.4788,0 -9.8705,-1.61314 -13.1739,-4.83594 -3.2228,-3.30338 -4.8339,-8.21793 -4.8339,-14.74414 v -51.1211 z m 141.2617,0 v 82.18165 h 15.5899 v -82.18165 z m -475.8496,17.08204 h 43.7305 v 87.85546 2.85743 84.69531 c 0,12.27715 -9.5881,21.86523 -21.8652,21.86523 -12.2772,0 -21.8653,-9.58808 -21.8653,-21.86523 v -84.69531 -2.85743 z m 125.4688,0 h 43.7305 v 87.85546 2.85743 84.69531 c 0,12.27715 -9.5882,21.86523 -21.8653,21.86523 -12.2772,0 -21.8652,-9.58808 -21.8652,-21.86523 v -84.69531 -2.85743 z m 128.168,131.57031 -13.6563,5.31836 27.3145,37.70508 -28.7637,41.57617 h 16.0723 l 20.6679,-30.93946 19.8203,30.93946 h 16.4356 l -27.0723,-40.97071 28.6426,-41.21289 h -16.3145 l -20.1836,30.45703 z m 66.1093,2.41601 v 82.1836 h 15.5899 v -28.64453 h 9.0644 c 6.0428,0 11.6018,-0.96671 16.6778,-2.90039 5.0759,-2.01427 9.1453,-5.07452 12.207,-9.1836 3.1422,-4.1091 4.7129,-9.14522 4.7129,-15.10742 0,-8.94329 -3.0217,-15.55008 -9.0645,-19.82031 -5.9622,-4.35082 -13.7768,-6.52735 -23.4453,-6.52735 z m 66.7207,0 v 82.1836 h 57.5274 l -2.5371,-12.20703 h -39.3985 v -23.08399 h 29.3672 l -2.5371,-12.44726 h -26.8301 v -22.11719 h 35.8926 l -2.416,-12.32813 z m 65.3067,0 v 82.1836 h 15.5898 v -31.18164 h 14.7442 l 17.4043,31.18164 h 16.6777 l -20.1836,-35.29102 c 4.2702,-2.09481 7.6547,-4.99494 10.1523,-8.70117 2.5783,-3.70626 3.8672,-8.01684 3.8672,-12.93164 0,-8.21815 -3.0622,-14.46219 -9.1855,-18.73242 -6.0428,-4.35082 -13.8169,-6.52735 -23.3242,-6.52735 z m 71.207,0 v 82.1836 h 15.5899 v -82.1836 z m 31.3145,0 v 82.1836 h 15.5898 v -50.15625 l 19.6992,25.25976 6.043,-0.84765 15.3496,-21.63282 v 47.37696 h 15.832 v -82.1836 h -9.5468 l -25.2598,37.94922 -27.7969,-37.94922 z m 88.2031,0 v 82.1836 h 57.5254 l -2.5371,-12.20703 h -39.3985 v -23.08399 h 29.3672 l -2.5371,-12.44726 h -26.8301 v -22.11719 h 35.8946 l -2.418,-12.32813 z m 65.3047,0 v 82.1836 h 15.5898 v -54.99024 l 38.0703,54.99024 h 15.711 v -82.1836 h -15.711 v 54.86914 l -38.0703,-54.86914 z m 76.0703,0 v 12.32813 h 25.0156 v 69.85547 h 15.832 v -69.85547 h 28.1602 l -2.5391,-12.32813 z m -448.5371,13.05274 h 9.6679 c 5.3982,0 9.4677,1.12879 12.2071,3.38476 2.8199,2.1754 4.2304,5.80103 4.2304,10.87696 -0.3222,4.43137 -1.8948,7.77527 -4.7148,10.03125 -2.82,2.17539 -6.6462,3.26172 -11.4805,3.26172 h -9.9101 z m 132.0273,0 h 9.668 c 10.9575,0 16.4375,4.31061 16.4375,12.93164 0,4.18966 -1.4916,7.29238 -4.4727,9.30664 -2.9005,1.93371 -6.8078,2.90039 -11.7226,2.90039 h -9.9102 z"
           style="font-style:normal;font-variant:normal;font-weight:bold;font-stretch:normal;font-family:Catamaran;-inkscape-font-specification:'Catamaran Bold';letter-spacing:-1.2700001px;stroke-width:3.02138853" />
      </g>
      <path
         inkscape:connector-curvature="0"
         id="rect3693-5-1-0-6-9-0-7"
         transform="scale(0.26458333)"
         d="m -1935.9844,510.74023 c -8.2037,0 -14.8086,6.60292 -14.8086,14.80665 v 89.36328 c 0,8.20373 6.6049,14.80664 14.8086,14.80664 8.2038,0 14.8086,-6.60291 14.8086,-14.80664 v -89.36328 c 0,-8.20373 -6.6048,-14.80665 -14.8086,-14.80665 z m -125.4687,45.23047 c -8.2042,0 -14.8086,6.60438 -14.8086,14.8086 v 44.1289 c 0,8.20419 6.6044,14.8086 14.8086,14.8086 8.2042,0 14.8086,-6.60441 14.8086,-14.8086 v -44.1289 c 0,-8.20422 -6.6044,-14.8086 -14.8086,-14.8086 z"
         style="fill:#87ceeb;fill-opacity:1;stroke:none;stroke-width:8.93635654;stroke-linecap:round;stroke-linejoin:round;stroke-miterlimit:4;stroke-dasharray:none;stroke-opacity:1" />
    </g>
  </g>
</svg>
