<?xml version="1.0" encoding="UTF-8" standalone="no"?>
<!-- Created with Inkscape (http://www.inkscape.org/) -->

<svg
   xmlns:dc="http://purl.org/dc/elements/1.1/"
   xmlns:cc="http://creativecommons.org/ns#"
   xmlns:rdf="http://www.w3.org/1999/02/22-rdf-syntax-ns#"
   xmlns:svg="http://www.w3.org/2000/svg"
   xmlns="http://www.w3.org/2000/svg"
   xmlns:sodipodi="http://sodipodi.sourceforge.net/DTD/sodipodi-0.dtd"
   xmlns:inkscape="http://www.inkscape.org/namespaces/inkscape"
   width="497.14999"
   height="480"
   viewBox="0 0 131.5376 127"
   version="1.1"
   id="svg4554"
   inkscape:version="0.92.1 r15371"
   sodipodi:docname="logo.svg">
  <defs
     id="defs4548" />
  <sodipodi:namedview
     id="base"
     pagecolor="#ffffff"
     bordercolor="#666666"
     borderopacity="1.0"
     inkscape:pageopacity="0.0"
     inkscape:pageshadow="2"
     inkscape:zoom="0.98994949"
     inkscape:cx="117.79654"
     inkscape:cy="302.1762"
     inkscape:document-units="mm"
     inkscape:current-layer="layer1"
     showgrid="false"
     units="px"
     inkscape:window-width="1920"
     inkscape:window-height="1137"
     inkscape:window-x="-8"
     inkscape:window-y="-8"
     inkscape:window-maximized="1" />
  <metadata
     id="metadata4551">
    <rdf:RDF>
      <cc:Work
         rdf:about="">
        <dc:format>image/svg+xml</dc:format>
        <dc:type
           rdf:resource="http://purl.org/dc/dcmitype/StillImage" />
        <dc:title />
      </cc:Work>
    </rdf:RDF>
  </metadata>
  <g
     inkscape:label="Layer 1"
     inkscape:groupmode="layer"
     id="layer1"
     transform="translate(0,-169.99998)">
    <path
       style="fill:#000000;fill-opacity:1;stroke:none;stroke-width:21.07843208;stroke-linecap:round;stroke-linejoin:round;stroke-miterlimit:4;stroke-dasharray:none;stroke-opacity:1;paint-order:stroke fill markers"
       d="M 402.9707 0.009765625 C 402.64567 -0.0076213091 402.37257 0.00063582677 402.13867 0.03125 C 400.22079 0.2824374 400.24591 1.6970685 402.4668 18.654297 L 404.87109 37.007812 L 401.26367 35.701172 C 389.94777 31.608775 378.29154 41.049065 379.86133 53.035156 C 380.57827 58.509273 384.3581 63.694143 389.19336 65.837891 C 397.65198 69.588127 407.99216 64.906439 411.12891 55.90625 C 412.33703 52.439327 412.20563 48.566015 410.4082 34.830078 L 408.20508 18.001953 L 414.92188 19.976562 L 421.63672 21.953125 L 423.9375 14.365234 L 426.23633 6.7753906 L 421.83203 5.3417969 C 410.06958 1.5133481 405.24597 0.13147416 402.9707 0.009765625 z M 422.63477 66.681641 C 421.56236 66.645017 421.44695 67.422218 421.12305 76.904297 L 420.77148 87.166016 L 418.91602 86.125 C 413.09441 82.858128 405.8599 86.96761 405.63086 93.669922 C 405.52636 96.730923 407.12259 99.911318 409.57422 101.52344 C 413.86315 104.34368 419.94882 102.71908 422.48242 98.078125 C 423.4583 96.290371 423.73694 94.159196 424 86.478516 L 424.32227 77.068359 L 427.81836 78.759766 L 431.31445 80.451172 L 433.26172 76.505859 L 435.20898 72.560547 L 432.92969 71.376953 C 425.9698 67.762213 423.68109 66.715656 422.63477 66.681641 z M 376.51367 81.777344 L 374.01953 82.400391 C 366.41068 84.301115 364.00499 85.035068 363.19727 85.701172 C 362.36956 86.383906 362.79891 87.042197 368.83594 94.361328 L 375.36914 102.2832 L 373.28906 102.73047 C 366.7636 104.13808 364.06288 112.0083 368.33008 117.18164 C 370.27895 119.54441 373.58168 120.87075 376.48633 120.45508 C 381.56761 119.72786 385.05208 114.48145 383.87695 109.32617 C 383.4242 107.34045 382.22152 105.558 377.33203 99.628906 L 371.3418 92.365234 L 375.08008 91.316406 L 378.82031 90.267578 L 377.66602 86.023438 L 376.51367 81.777344 z M 59.230469 142.62695 C 53.391741 142.62695 48.691406 147.32729 48.691406 153.16602 C 48.691406 159.00474 53.391741 163.70508 59.230469 163.70508 L 63.160156 163.70508 L 63.160156 261.69922 L 63.160156 265.57031 L 63.160156 359.35547 C 63.160156 384.36226 83.62017 404.82227 108.62695 404.82227 C 133.63377 404.82227 154.0957 384.36226 154.0957 359.35547 L 154.0957 261.69922 L 154.0918 261.69922 L 154.0918 163.70508 L 158.02344 163.70508 C 163.86217 163.70508 168.5625 159.00474 168.5625 153.16602 C 168.5625 147.32729 163.86217 142.62695 158.02344 142.62695 L 143.55469 142.62695 L 73.699219 142.62695 L 59.230469 142.62695 z M 199.17969 142.62695 C 193.34096 142.62695 188.64062 147.32729 188.64062 153.16602 C 188.64062 159.00474 193.34096 163.70508 199.17969 163.70508 L 203.10742 163.70508 L 203.10742 261.69922 L 203.10742 265.57031 L 203.10742 359.35547 C 203.10742 384.36226 223.56744 404.82227 248.57422 404.82227 C 273.58104 404.82227 294.04297 384.36226 294.04297 359.35547 L 294.04297 261.69922 L 294.04102 261.69922 L 294.04102 163.70508 L 297.9707 163.70508 C 303.80943 163.70508 308.50977 159.00474 308.50977 153.16602 C 308.50977 147.32729 303.80943 142.62695 297.9707 142.62695 L 283.50391 142.62695 L 213.64648 142.62695 L 199.17969 142.62695 z M 339.12695 142.62695 C 333.28823 142.62695 328.58789 147.32729 328.58789 153.16602 C 328.58789 159.00474 333.28823 163.70508 339.12695 163.70508 L 343.05469 163.70508 L 343.05469 261.69922 L 343.05469 265.57031 L 343.05469 359.35547 C 343.05469 384.36226 363.51667 404.82227 388.52344 404.82227 C 413.53027 404.82227 433.99023 384.36226 433.99023 359.35547 L 433.99023 261.69922 L 433.98828 261.69922 L 433.98828 163.70508 L 437.91797 163.70508 C 443.7567 163.70508 448.45898 159.00474 448.45898 153.16602 C 448.45898 147.32729 443.7567 142.62695 437.91797 142.62695 L 423.45117 142.62695 L 353.59375 142.62695 L 339.12695 142.62695 z M 84.238281 163.70508 L 133.01562 163.70508 L 133.01562 261.69922 L 133.01562 264.88672 L 133.01562 359.35547 C 133.01562 373.04942 122.32093 383.74414 108.62695 383.74414 C 94.933052 383.74414 84.238281 373.04942 84.238281 359.35547 L 84.238281 264.88672 L 84.238281 261.69922 L 84.238281 163.70508 z M 224.18555 163.70508 L 272.96289 163.70508 L 272.96289 261.69922 L 272.96289 264.88672 L 272.96289 359.35547 C 272.96289 373.04942 262.2682 383.74414 248.57422 383.74414 C 234.88032 383.74414 224.18555 373.04942 224.18555 359.35547 L 224.18555 264.88672 L 224.18555 261.69922 L 224.18555 163.70508 z M 364.13477 163.70508 L 412.91211 163.70508 L 412.91211 261.69922 L 412.91211 264.88672 L 412.91211 359.35547 C 412.91211 373.04942 402.21742 383.74414 388.52344 383.74414 C 374.82954 383.74414 364.13477 373.04942 364.13477 359.35547 L 364.13477 264.88672 L 364.13477 261.69922 L 364.13477 163.70508 z M 34.927734 215.49023 C 15.577391 215.49023 -9.4739031e-015 231.06957 0 250.41992 L 0 445.07227 C 0 464.42258 15.577391 480 34.927734 480 L 462.22266 480 C 481.57301 480 497.15039 464.42258 497.15039 445.07227 L 497.15039 250.41992 C 497.15039 231.06957 481.57301 215.49023 462.22266 215.49023 L 444.71094 215.49023 L 444.71094 358.89844 C 444.71094 390.02648 419.65151 415.08594 388.52344 415.08594 C 357.39538 415.08594 332.33398 390.02648 332.33398 358.89844 L 332.33398 215.49023 L 304.76367 215.49023 L 304.76367 358.89844 C 304.76367 390.02648 279.70228 415.08594 248.57422 415.08594 C 217.44615 415.08594 192.38672 390.02648 192.38672 358.89844 L 192.38672 215.49023 L 164.81445 215.49023 L 164.81445 358.89844 C 164.81445 390.02648 139.75502 415.08594 108.62695 415.08594 C 77.498885 415.08594 52.439453 390.02648 52.439453 358.89844 L 52.439453 215.49023 L 34.927734 215.49023 z "
       transform="matrix(0.26458333,0,0,0.26458333,0,169.99998)"
       id="rect4607" />
    <path
       style="fill:#fff200;fill-opacity:1;stroke:none;stroke-width:11.89911461;stroke-linecap:round;stroke-linejoin:round;stroke-miterlimit:4;stroke-dasharray:none;stroke-opacity:1"
       d="M 248.57422 220.01562 C 237.65062 220.01562 228.85742 228.80883 228.85742 239.73242 L 228.85742 358.7207 C 228.85742 369.64426 237.65062 378.4375 248.57422 378.4375 C 259.49782 378.4375 268.29297 369.64426 268.29297 358.7207 L 268.29297 239.73242 C 268.29297 228.80883 259.49782 220.01562 248.57422 220.01562 z M 388.52344 280.24609 C 377.59984 280.24609 368.80469 289.04125 368.80469 299.96484 L 368.80469 358.7207 C 368.80469 369.64426 377.59984 378.4375 388.52344 378.4375 C 399.44703 378.4375 408.24023 369.64426 408.24023 358.7207 L 408.24023 299.96484 C 408.24023 289.04125 399.44703 280.24609 388.52344 280.24609 z M 108.62695 315.93945 C 97.703359 315.93945 88.910156 324.73266 88.910156 335.65625 L 88.910156 358.7207 C 88.910156 369.64429 97.703359 378.4375 108.62695 378.4375 C 119.55054 378.4375 128.3457 369.64429 128.3457 358.7207 L 128.3457 335.65625 C 128.3457 324.73266 119.55054 315.93945 108.62695 315.93945 z "
       transform="matrix(0.26458333,0,0,0.26458333,0,169.99998)"
       id="rect3693-5" />
  </g>
</svg>
